<svg width="27" height="27" viewBox="0 0 27 27" fill="none" xmlns="http://www.w3.org/2000/svg">
  <path fill-rule="evenodd" clip-rule="evenodd" d="M18.1173 26.1858C11.1111 28.7359 3.36422 25.1235 0.814175 18.1173C0.0252717 15.9498 -0.173831 13.7114 0.134889 11.5779C0.134889 11.5779 3.67216 11.8035 5.68629 12.7303C7.6892 13.652 8.59468 14.6676 9.72325 15.9335C10.1891 16.456 10.6929 17.0211 11.3276 17.6399L11.4374 17.7469C13.5166 19.7744 14.9846 21.2059 17.6292 21.9566C19.9678 22.6205 23.8425 22.1801 23.8425 22.1801C22.3695 23.9386 20.4279 25.3448 18.1173 26.1858ZM2.10486 6.25995C3.64552 3.83124 5.97106 1.87392 8.88275 0.814149C15.889 -1.7359 23.6358 1.87652 26.1859 8.88273C27.104 11.4054 27.2233 14.024 26.6729 16.4616C26.6729 16.4616 24.5754 16.3681 22.8859 15.4602C21.2289 14.5698 20.0794 13.2386 18.8988 11.8714C18.2478 11.1175 17.5874 10.3527 16.8273 9.64486C14.3095 7.30018 12.6411 6.29177 9.43514 5.46065C6.43662 4.68332 2.10486 6.25995 2.10486 6.25995ZM21.3867 12.3041C23.5814 14.7507 25.2838 14.5874 25.2838 14.5874C25.2838 14.5874 25.5267 7.62431 20.4465 4.18511C13.5882 -0.457807 7.06661 3.76674 7.06661 3.76674C7.06661 3.76674 12.1686 3.58437 15.9339 6.70894C18.2806 8.65632 19.9521 10.7047 21.3867 12.3041Z" fill="black"/>
  <path d="M0.548882 9.68666C0.548882 9.68666 5.28721 10.2214 8.7821 12.1996C11.8252 13.9221 16.4734 18.781 16.4734 18.781C16.4734 18.781 14.7686 14.0971 8.7114 10.2573C5.35753 8.13119 1.15643 8.03317 1.15643 8.03317C0.9186 8.57 0.715516 9.12238 0.548882 9.68666Z" fill="black"/>
  <path d="M16.5036 15.2932C20.0057 20.2505 25.4277 19.8233 25.4277 19.8233C25.6674 19.3708 25.9815 18.6418 26.1687 18.1651C26.1687 18.1651 23.2731 18.4419 20.5466 17.0718C18.6934 16.1406 16.8965 13.3227 15.091 11.4121C11.6493 7.77029 7.06285 7.47599 7.06285 7.47599C7.06285 7.47599 13.2371 10.6695 16.5036 15.2932Z" fill="black"/>
  </svg>
  